<?xml version="1.0" encoding="UTF-8"?>
<!DOCTYPE svg PUBLIC "-//W3C//DTD SVG 1.1//EN" "http://www.w3.org/Graphics/SVG/1.1/DTD/svg11.dtd">
<svg xmlns="http://www.w3.org/2000/svg" version="1.1" width="61px" height="33px" style="shape-rendering:geometricPrecision; text-rendering:geometricPrecision; image-rendering:optimizeQuality; fill-rule:evenodd; clip-rule:evenodd" xmlns:xlink="http://www.w3.org/1999/xlink">
<g><path style="opacity:0.773" fill="#fefffe" d="M -0.5,-0.5 C 4.16667,-0.5 8.83333,-0.5 13.5,-0.5C 14.7563,2.76736 15.923,6.1007 17,9.5C 18.3695,5.8721 20.2028,2.53876 22.5,-0.5C 25.5,-0.5 28.5,-0.5 31.5,-0.5C 33.0542,0.914167 34.3875,2.58083 35.5,4.5C 31.969,5.32466 28.6357,5.32466 25.5,4.5C 22.6856,8.05471 23.3523,10.7214 27.5,12.5C 31.4334,11.0118 31.1001,10.3451 26.5,10.5C 26.33,9.17793 26.6634,8.01127 27.5,7C 30.146,6.50258 32.8127,6.33591 35.5,6.5C 35.3971,16.5529 30.7304,19.5529 21.5,15.5C 19.1324,17.223 16.4658,17.8897 13.5,17.5C 10.3081,1.84455 8.97473,1.84455 9.5,17.5C 7.83333,17.5 6.16667,17.5 4.5,17.5C 4.5,12.8333 4.5,8.16667 4.5,3.5C 2.83333,3.5 1.16667,3.5 -0.5,3.5C -0.5,2.16667 -0.5,0.833333 -0.5,-0.5 Z"/></g>
</svg>
